<!-- icon666.com - MILLIONS vector ICONS FREE --><svg viewBox="0 0 25 25" xmlns="http://www.w3.org/2000/svg"><g id="Clear" fill="rgb(0,0,0)"><path d="m21.5 18h-13a.5.5 0 0 1 -.354-.146l-5-5a.5.5 0 0 1 0-.708l5-5a.5.5 0 0 1 .354-.146h13a.5.5 0 0 1 .5.5v10a.5.5 0 0 1 -.5.5zm-12.793-1h12.293v-9h-12.293l-4.5 4.5z" fill="rgb(0,0,0)" style="fill: rgb(0, 225, 255);"></path><path d="m16.5 15a.5.5 0 0 1 -.354-.146l-4-4a.5.5 0 0 1 .708-.708l4 4a.5.5 0 0 1 -.354.854z" fill="rgb(0,0,0)" style="fill: rgb(0, 225, 255);"></path><path d="m12.5 15a.5.5 0 0 1 -.354-.854l4-4a.5.5 0 0 1 .708.708l-4 4a.5.5 0 0 1 -.354.146z" fill="rgb(0,0,0)" style="fill: rgb(0, 225, 255);"></path></g></svg>